<svg version="1.1" id="Layer_1" xmlns="http://www.w3.org/2000/svg" xmlns:xlink="http://www.w3.org/1999/xlink" x="0px" y="0px"
	 width="100%" viewBox="0 0 3003 2013" enable-background="new 0 0 3003 2013" xml:space="preserve">

<path fill="none" stroke="#FFFFFF" stroke-width="12" d="M866,584 1571,608 1331,1982 964,1970 846,838 866,584 z"/>
<path fill="none" stroke="#0000FF" stroke-width="12" d="M2301,580 2971,533 2877,1928 2509,1953 2273,838 2301,580 z"/>

<path fill="none" stroke="#FFFF00" stroke-width="12" d="M1600,605 2274,580 2226,1034 1600,1054 1560,835 1600,605 z"/>
<path fill="none" stroke="#FF0000" stroke-width="12" d="M1601,1066 2224,1044 2177,1504 1680,1520 1601,1066 z"/>
<path fill="none" stroke="#FFFF00" stroke-width="12" d="M1683,1533 2175,1517 2130,1972 1762,1984 1683,1533 z"/>

<path fill="none" stroke="#FFFFFF" stroke-width="12" d="M83,532 839,584 786,1338 30,1283 83,532 z"/>






<circle cx="1188" cy="975" r="194" stroke = "#FF0000" stroke-width="12" fill = "none"/>
<circle cx="2626" cy="940" r="194" stroke = "#FFFFFF" stroke-width="12" fill = "none"/>

<path fill="none" stroke="#0000FF" stroke-width="12" d="M320,800 574,819 555,1073 300,1053 320,800 z"/>
</svg>
